<svg width="32" height="32" viewBox="0 0 32 32" fill="none" xmlns="http://www.w3.org/2000/svg"><path fill="#1e40af" d="M2.75847 28C2.44678 28 2.07275 27.1612 1.63638 25.4836C1.18024 23.6341 0.798109 21.7669 0.490914 19.8865C0.163638 17.8483 0 16.5627 0 16.0297C0 14.4461 0.529875 13.2938 1.58963 12.5726C2.64938 11.8357 4.01303 11.4673 5.68058 11.4673C6.5689 11.4673 7.41046 11.6554 8.20528 12.0317C8.9749 12.3716 9.63769 12.9164 10.1222 13.6074C10.6053 14.2815 10.8469 15.0654 10.8469 15.9591C10.8469 17.0723 10.4572 17.8562 9.67802 18.3108C8.91438 18.7655 7.94813 18.9928 6.77929 18.9928C5.56369 18.9928 4.52732 18.789 3.67017 18.3814C2.8286 17.9581 2.40782 17.3858 2.40782 16.6646L2.43119 16.4294C2.54029 16.304 2.65717 16.2413 2.78185 16.2413C2.89094 16.2413 3.00782 16.2883 3.1325 16.3824C3.27276 16.4608 3.42081 16.5549 3.57666 16.6646C4.02174 17.0021 4.49948 17.2936 5.00265 17.5348C5.48577 17.7543 6.08578 17.864 6.80267 17.864C7.78449 17.864 8.47801 17.6915 8.88321 17.3466C9.30399 16.986 9.51438 16.4216 9.51438 15.6534C9.51438 15.089 9.32737 14.5873 8.95334 14.1483C8.57931 13.7093 8.09619 13.3722 7.50397 13.137C6.92391 12.9042 6.30511 12.7845 5.68058 12.7843C4.23121 12.7843 3.14029 13.0978 2.40782 13.7249C1.67534 14.3364 1.34807 15.3633 1.42599 16.8057C1.56625 19.2515 1.78443 21.3054 2.08054 22.9673C2.39223 24.6292 2.9299 26.0402 3.69354 27.2004L3.71692 27.2474C3.71692 27.2788 3.67796 27.3102 3.60004 27.3415C3.55073 27.3775 3.50387 27.4168 3.45978 27.4591C3.27276 27.757 3.03899 27.9373 2.75847 28ZM15.4745 28C15.1628 28 14.7888 27.1612 14.3524 25.4836C13.8963 23.6341 13.5141 21.7669 13.207 19.8865C12.8797 17.8483 12.716 16.5627 12.716 16.0297C12.716 14.4461 13.2459 13.2938 14.3057 12.5726C15.3654 11.8357 16.7291 11.4673 18.3966 11.4673C19.2849 11.4673 20.1265 11.6554 20.9213 12.0317C21.6909 12.3716 22.3537 12.9164 22.8382 13.6074C23.3213 14.2815 23.5629 15.0654 23.5629 15.9591C23.5629 17.0723 23.1733 17.8562 22.3941 18.3108C21.6304 18.7655 20.6642 18.9928 19.4953 18.9928C18.2797 18.9928 17.2434 18.789 16.3862 18.3814C15.5446 17.9581 15.1239 17.3858 15.1239 16.6646L15.1472 16.4294C15.2563 16.304 15.3732 16.2413 15.4979 16.2413C15.607 16.2413 15.7239 16.2883 15.8485 16.3824C15.9888 16.4608 16.1369 16.5549 16.2927 16.6646C16.7378 17.0021 17.2155 17.2936 17.7187 17.5348C18.2018 17.7543 18.8018 17.864 19.5187 17.864C20.5005 17.864 21.194 17.6915 21.5992 17.3466C22.02 16.986 22.2304 16.4216 22.2304 15.6534C22.2304 15.089 22.0434 14.5873 21.6694 14.1483C21.2953 13.7093 20.8122 13.3722 20.22 13.137C19.6399 12.9042 19.0212 12.7845 18.3966 12.7843C16.9473 12.7843 15.8563 13.0978 15.1239 13.7249C14.3914 14.3364 14.0641 15.3633 14.142 16.8057C14.2823 19.2515 14.5005 21.3054 14.7966 22.9673C15.1083 24.6292 15.6459 26.0402 16.4096 27.2004L16.433 27.2474C16.433 27.2788 16.394 27.3102 16.3161 27.3415C16.2668 27.3775 16.2199 27.4168 16.1758 27.4591C15.9888 27.757 15.755 27.9373 15.4745 28ZM29.1948 19.6278C29.0389 19.6592 28.9376 19.6748 28.8909 19.6748C28.4078 19.6748 28.0727 19.3142 27.8857 18.593C27.7142 17.8718 27.6285 16.8606 27.6285 15.5593C27.6285 15.0262 27.6441 14.1953 27.6753 13.0665C27.7065 12.3766 27.722 11.8592 27.722 11.5143C25.8051 11.5143 24.8467 11.2948 24.8467 10.8558C24.8467 10.7147 24.8623 10.605 24.8934 10.5266C24.9402 10.4482 25.0337 10.409 25.174 10.409L27.722 10.2444C27.7032 9.40477 27.6642 8.56574 27.6052 7.72802C27.5428 6.91275 27.5039 6.16019 27.4883 5.47035C27.4883 5.29789 27.5584 5.1803 27.6987 5.11759C27.8341 5.04045 27.9872 4.99994 28.1428 5C28.3298 5 28.4857 5.10191 28.6104 5.30573C28.735 5.49387 28.7974 5.68984 28.7974 5.89366L28.961 10.1973L30.9013 10.2914C31.1974 10.2601 31.4467 10.3149 31.6493 10.456C31.8675 10.5971 31.9844 10.8323 32 11.1616C31.658 11.3062 31.2947 11.3936 30.9247 11.4202C30.5351 11.4516 29.8805 11.4673 28.961 11.4673C28.961 12.9254 29.0311 15.3241 29.1714 18.6636V19.3926C29.187 19.5181 29.1948 19.5965 29.1948 19.6278Z" fill="#1E40AF"/></svg>
