<svg xmlns="http://www.w3.org/2000/svg" viewBox="0 0 64 25" width="64" height="25" fill="none"><path fill="#1E40AF" d="M3.792 24.544c-.32 0-.704-.856-1.152-2.568a72.642 72.642 0 0 1-1.176-5.712c-.336-2.08-.504-3.392-.504-3.936 0-1.616.544-2.792 1.632-3.528 1.088-.752 2.488-1.128 4.2-1.128.912 0 1.776.192 2.592.576a4.74 4.74 0 0 1 1.968 1.608c.496.688.744 1.488.744 2.4 0 1.136-.4 1.936-1.2 2.4-.784.464-1.776.696-2.976.696-1.248 0-2.312-.208-3.192-.624-.864-.432-1.296-1.016-1.296-1.752l.024-.24c.112-.128.232-.192.36-.192.112 0 .232.048.36.144.144.08.296.176.456.288a8.52 8.52 0 0 0 1.464.888c.496.224 1.112.336 1.848.336 1.008 0 1.72-.176 2.136-.528.432-.368.648-.944.648-1.728 0-.576-.192-1.088-.576-1.536-.384-.448-.88-.792-1.488-1.032a5.056 5.056 0 0 0-1.872-.36c-1.488 0-2.608.32-3.36.96-.752.624-1.088 1.672-1.008 3.144.144 2.496.368 4.592.672 6.288.32 1.696.872 3.136 1.656 4.32l.024.048c0 .032-.04.064-.12.096a1.403 1.403 0 0 0-.144.12c-.192.304-.432.488-.72.552Zm15.19-8.52c-.943 0-1.8-.208-2.567-.624a4.731 4.731 0 0 1-1.776-1.776c-.416-.768-.624-1.64-.624-2.616 0-1.6.584-2.792 1.752-3.576 1.184-.784 2.632-1.176 4.344-1.176.784 0 1.512.192 2.184.576.688.384 1.24.936 1.656 1.656.416.72.624 1.552.624 2.496 0 1.024-.264 1.92-.792 2.688a5.32 5.32 0 0 1-2.088 1.752c-.848.4-1.752.6-2.712.6Zm-.263-1.368c1.488 0 2.616-.336 3.384-1.008.768-.672 1.152-1.656 1.152-2.952 0-.88-.304-1.64-.912-2.28-.592-.64-1.424-.96-2.496-.96-.72 0-1.448.136-2.184.408-.736.272-1.344.68-1.824 1.224-.48.544-.72 1.2-.72 1.968 0 .64.16 1.24.48 1.8.32.544.752.984 1.296 1.32.56.32 1.168.48 1.824.48Zm10.596 9.888c-.32 0-.704-.856-1.152-2.568a72.642 72.642 0 0 1-1.176-5.712c-.336-2.08-.504-3.392-.504-3.936 0-1.616.544-2.792 1.632-3.528 1.088-.752 2.488-1.128 4.2-1.128.912 0 1.776.192 2.592.576a4.74 4.74 0 0 1 1.968 1.608c.496.688.744 1.488.744 2.4 0 1.136-.4 1.936-1.2 2.4-.784.464-1.776.696-2.976.696-1.248 0-2.312-.208-3.192-.624-.864-.432-1.296-1.016-1.296-1.752l.024-.24c.112-.128.232-.192.36-.192.112 0 .232.048.36.144.144.08.296.176.456.288a8.52 8.52 0 0 0 1.464.888c.496.224 1.112.336 1.848.336 1.008 0 1.72-.176 2.136-.528.432-.368.648-.944.648-1.728 0-.576-.192-1.088-.576-1.536-.384-.448-.88-.792-1.488-1.032a5.056 5.056 0 0 0-1.872-.36c-1.488 0-2.608.32-3.36.96-.752.624-1.088 1.672-1.008 3.144.144 2.496.368 4.592.672 6.288.32 1.696.872 3.136 1.656 4.32l.024.048c0 .032-.04.064-.12.096a1.403 1.403 0 0 0-.144.12c-.192.304-.432.488-.72.552Zm21.263-8.664a.823.823 0 0 1-.696-.36c-.16-.256-.304-.64-.432-1.152-.128-.528-.328-1.44-.6-2.736-.272 1.072-.784 1.928-1.536 2.568-.752.624-1.672.936-2.76.936-.992 0-1.832-.344-2.52-1.032-.672-.704-1.176-1.624-1.512-2.76-.336-1.152-.504-2.392-.504-3.72 0-.608.056-1.128.168-1.56.128-.448.28-.784.456-1.008.192-.224.376-.328.552-.312.192 0 .288.128.288.384 0 .208-.056.536-.168.984a7.78 7.78 0 0 0-.168 1.704c0 .96.136 1.896.408 2.808.288.912.704 1.664 1.248 2.256.56.576 1.216.864 1.968.864.624 0 1.192-.184 1.704-.552a3.872 3.872 0 0 0 1.2-1.392c.304-.56.456-1.112.456-1.656V6.328c.176-.336.416-.504.72-.504.272 0 .456.232.552.696.096.464.144 1.12.144 1.968 0 .72-.008 1.272-.024 1.656.096.528.24 1.064.432 1.608.208.544.464 1.16.768 1.848.368.848.552 1.368.552 1.56 0 .48-.232.72-.696.72Zm6.488.12c-.16.032-.264.048-.312.048-.496 0-.84-.368-1.032-1.104-.176-.736-.264-1.768-.264-3.096 0-.544.016-1.392.048-2.544.032-.704.048-1.232.048-1.584-1.968 0-2.952-.224-2.952-.672 0-.144.016-.256.048-.336.048-.08.144-.12.288-.12l2.616-.168a53.348 53.348 0 0 0-.12-2.568c-.064-.832-.104-1.6-.12-2.304 0-.176.072-.296.216-.36a.925.925 0 0 1 .456-.12c.192 0 .352.104.48.312.128.192.192.392.192.6l.168 4.392 1.992.096c.304-.032.56.024.768.168.224.144.344.384.36.72a3.49 3.49 0 0 1-1.104.264c-.4.032-1.072.048-2.016.048 0 1.488.072 3.936.216 7.344v.744c.016.128.024.208.024.24Zm5.807.024c-.368 0-.664-.536-.888-1.608-.224-1.088-.368-2.024-.432-2.808a268.56 268.56 0 0 1-.264-3.72 18.705 18.705 0 0 1-.024-1.056c0-.544.04-.92.12-1.128.096-.208.248-.312.456-.312.176 0 .312.04.408.12a.763.763 0 0 1 .288.336l-.024.96c0 1.024.048 1.992.144 2.904.112.912.28 2.136.504 3.672.128.672.216 1.224.264 1.656.032.224-.008.448-.12.672-.112.208-.256.312-.432.312Zm-.6-13.2c-.352 0-.616-.136-.792-.408-.16-.272-.24-.608-.24-1.008 0-.176.008-.304.024-.384-.016-.256.128-.384.432-.384.224 0 .448.056.672.168.24.096.312.168.216.216.16.416.24.744.24.984 0 .208-.048.376-.144.504a1.437 1.437 0 0 1-.408.312Z"/></svg>
