<svg xmlns="http://www.w3.org/2000/svg" width="32" height="23" fill="none"><path fill="#1E40AF" d="M2.758 23c-.311 0-.685-.839-1.122-2.516a71.552 71.552 0 0 1-1.145-5.598C.164 12.848 0 11.563 0 11.03c0-1.584.53-2.736 1.59-3.457 1.06-.737 2.423-1.106 4.09-1.106.889 0 1.73.188 2.525.565.77.34 1.433.884 1.917 1.575.483.675.725 1.458.725 2.352 0 1.113-.39 1.897-1.169 2.352-.764.454-1.73.682-2.899.682-1.215 0-2.252-.204-3.109-.612-.841-.423-1.262-.995-1.262-1.716l.023-.236c.11-.125.226-.188.35-.188.11 0 .227.047.351.141.14.079.289.173.445.283.445.337.922.629 1.426.87.483.22 1.083.329 1.8.329.981 0 1.675-.173 2.08-.517.421-.361.631-.925.631-1.694 0-.564-.187-1.066-.56-1.505a3.618 3.618 0 0 0-1.45-1.011 4.899 4.899 0 0 0-1.823-.353c-1.45 0-2.54.314-3.273.941-.733.611-1.06 1.638-.982 3.08.14 2.447.358 4.5.655 6.162.311 1.662.849 3.073 1.613 4.233l.023.047c0 .032-.039.063-.117.095-.05.036-.096.075-.14.117-.187.298-.421.478-.702.541Zm12.716 0c-.311 0-.685-.839-1.122-2.516a71.526 71.526 0 0 1-1.145-5.598c-.327-2.038-.491-3.323-.491-3.856 0-1.584.53-2.736 1.59-3.457 1.06-.737 2.423-1.106 4.09-1.106.889 0 1.73.188 2.525.565.77.34 1.433.884 1.917 1.575.483.675.725 1.458.725 2.352 0 1.113-.39 1.897-1.169 2.352-.764.454-1.73.682-2.899.682-1.215 0-2.252-.204-3.109-.612-.841-.423-1.262-.995-1.262-1.716l.023-.236c.11-.125.226-.188.35-.188.11 0 .227.047.351.141.14.079.289.173.445.283.445.337.922.629 1.426.87.483.22 1.083.329 1.8.329.982 0 1.675-.173 2.08-.517.421-.361.631-.925.631-1.694 0-.564-.187-1.066-.56-1.505a3.618 3.618 0 0 0-1.45-1.011 4.899 4.899 0 0 0-1.823-.353c-1.45 0-2.54.314-3.273.941-.733.611-1.06 1.638-.982 3.08.14 2.447.359 4.5.655 6.162.311 1.662.849 3.073 1.613 4.233l.023.047c0 .032-.039.063-.117.095a1.37 1.37 0 0 0-.14.117c-.187.298-.421.478-.701.541Zm13.72-8.372a2.035 2.035 0 0 1-.303.047c-.483 0-.818-.36-1.005-1.082-.172-.721-.258-1.732-.258-3.034 0-.533.016-1.364.047-2.493.031-.69.047-1.207.047-1.552-1.917 0-2.875-.22-2.875-.658 0-.141.015-.251.046-.33.047-.078.14-.117.281-.117l2.548-.165a52.567 52.567 0 0 0-.117-2.516A42.255 42.255 0 0 1 27.488.47c0-.172.07-.29.21-.352A.897.897 0 0 1 28.144 0c.187 0 .343.102.467.306.125.188.187.384.187.588l.164 4.303 1.94.094c.296-.031.546.024.748.165.218.141.335.376.351.706a3.383 3.383 0 0 1-1.075.258c-.39.032-1.044.047-1.964.047 0 1.458.07 3.857.21 7.197v.729c.016.125.024.204.024.235Z"/></svg>
