<svg xmlns="http://www.w3.org/2000/svg" width="512" height="512" fill="none"><path fill="#1e40af" d="M339.986 178.588a101.568 101.568 0 0 0-43.004-9.584 121.021 121.021 0 0 0-68.732 18.8 68.52 68.52 0 0 0-21.875 26.759 68.746 68.746 0 0 0-6.059 34.064 554.495 554.495 0 0 0 7.718 61.93c5.514 32.07 11.394 61.929 18.01 88.47C235.968 435.89 242.584 444 251.038 444c7.11-1.434 14.234-8.09 18.462-14 1.5-3 .5-7-.5-9-12.47-19.345-21.171-41.642-24.946-64.365a881.109 881.109 0 0 1-9.923-95.843 48.416 48.416 0 0 1 1.297-22.763 48.315 48.315 0 0 1 11.567-19.629 73.349 73.349 0 0 1 46.679-12.902 71.13 71.13 0 0 1 26.096 4.792 47.78 47.78 0 0 1 19.848 14.008 27.695 27.695 0 0 1 6.984 18.8 25.513 25.513 0 0 1-1.262 11.356 25.44 25.44 0 0 1-6.09 9.656 42.896 42.896 0 0 1-27.933 6.266 62.685 62.685 0 0 1-25.362-4.423 130.631 130.631 0 0 1-18.01-13.639l-6.616-4.055a15.771 15.771 0 0 0-9.923-3.686 13.181 13.181 0 0 0-6.195 1.398 13.235 13.235 0 0 0-4.832 4.131v6.635a36.934 36.934 0 0 0 6.833 20.435 36.77 36.77 0 0 0 17.058 13.11 118.787 118.787 0 0 0 52.192 10.322 94.607 94.607 0 0 0 47.047-11.428 45.654 45.654 0 0 0 17.196-18.391 45.83 45.83 0 0 0 4.857-24.738 69.444 69.444 0 0 0-12.497-41.286 82.737 82.737 0 0 0-33.079-26.173ZM139.67 178.588a100.476 100.476 0 0 0-43.004-9.584 118.82 118.82 0 0 0-68.364 18.8 68.146 68.146 0 0 0-22.129 26.678A68.368 68.368 0 0 0 0 248.627a554.476 554.476 0 0 0 7.719 61.93c5.513 32.07 11.761 61.929 18.377 88.47C35.653 435.89 42.636 444 50.722 444h1.838C59.725 442.455 69 432 71 428c1-2 .5-5.5-.43-7.592a174.67 174.67 0 0 1-24.258-63.773 788.498 788.498 0 0 1-9.557-96.212 49.536 49.536 0 0 1 1.427-22.724 49.44 49.44 0 0 1 11.438-19.668 73.356 73.356 0 0 1 46.679-12.902 73.315 73.315 0 0 1 26.463 4.793 48.889 48.889 0 0 1 19.481 14.007 28.065 28.065 0 0 1 7.351 18.8 26.983 26.983 0 0 1-1.407 11.305 26.927 26.927 0 0 1-5.944 9.707 43.64 43.64 0 0 1-27.934 6.267 61.584 61.584 0 0 1-25.361-4.424 105.441 105.441 0 0 1-20.95-13.27l-6.984-4.055a15.781 15.781 0 0 0-9.924-3.687 13.573 13.573 0 0 0-6.174 1.44 13.607 13.607 0 0 0-4.853 4.09v6.635a36.934 36.934 0 0 0 6.985 20.515 36.763 36.763 0 0 0 17.274 13.03 118.788 118.788 0 0 0 52.192 10.322 96.435 96.435 0 0 0 47.047-11.428 45.654 45.654 0 0 0 17.196-18.391 45.83 45.83 0 0 0 4.857-24.738 69.818 69.818 0 0 0-12.864-39.812 82.77 82.77 0 0 0-33.08-27.647ZM502.811 154.996a23.839 23.839 0 0 0-14.335-4.055h-24.993l-2.205-61.56a22.54 22.54 0 0 0-4.043-12.903 15.837 15.837 0 0 0-5.65-6.094 15.774 15.774 0 0 0-7.95-2.384c-3.47.023-6.88.91-9.924 2.58a12.141 12.141 0 0 0-5.85 4.812 12.194 12.194 0 0 0-1.868 7.353c0 12.165 1.801 22.255 1.837 36.863.031 12.392 0 21.38 0 32.07h-32.712a12.112 12.112 0 0 0-6.462 1.732 12.142 12.142 0 0 0-4.564 4.904 24.395 24.395 0 0 0 0 7.741c0 14.376 20.583 17.325 45.209 17.694v56.4a242.89 242.89 0 0 0 2.94 49.027c5.146 18.8 15.437 22.487 23.156 22.487a17.22 17.22 0 0 0 6.248 0 22.827 22.827 0 0 0 5.146-5.161 55.455 55.455 0 0 0 0-17.694c-1.838-46.816-3.308-82.204-3.308-105.428 8.079.474 16.179.474 24.258 0a32.636 32.636 0 0 0 19.481-4.792 18.806 18.806 0 0 0 4.41-7.372 15.883 15.883 0 0 0-1.811-9.532 15.82 15.82 0 0 0-7.01-6.688Z" /></svg>
